<?xml version="1.0" standalone="no"?><!DOCTYPE svg PUBLIC "-//W3C//DTD SVG 1.1//EN" "http://www.w3.org/Graphics/SVG/1.1/DTD/svg11.dtd"><svg t="1494043215713" class="icon" style="" viewBox="0 0 1024 1024" version="1.1" xmlns="http://www.w3.org/2000/svg" p-id="1847" xmlns:xlink="http://www.w3.org/1999/xlink" width="20" height="20"><defs><style type="text/css"></style></defs><path d="M975.645 525.348 555.964 105.667c-25.934-25.934-68.132-25.935-94.065 0L42.218 525.348c-9.991 9.991-9.991 26.189 0 36.18 9.991 9.991 26.189 9.991 36.179 0l34.64-34.641 0 362.843c0 36.677 29.839 66.516 66.515 66.516l654.916 0c36.677 0 66.516-29.839 66.516-66.516L900.984 523.045l38.481 38.482c4.996 4.996 11.542 7.492 18.09 7.492 6.549 0 13.095-2.496 18.09-7.492C985.635 551.536 985.635 535.339 975.645 525.348zM625.613 931.367l0-256.85c0 0 0.989-12.972-15.351-15.351L405.602 659.166c0 0-15.35-0.42-15.35 15.351l0 256.85-51.166 0.001L339.086 674.518c0 0 0.337-57.729 60.922-66.277 26.915-0.237 210.254-0.237 210.254-0.237s55.661-2.715 66.22 60.28l0.295 263.085L625.613 931.367z" p-id="1848" class="selected" fill="#007EE5"></path></svg>