<?xml version="1.0" standalone="no"?><!DOCTYPE svg PUBLIC "-//W3C//DTD SVG 1.1//EN" "http://www.w3.org/Graphics/SVG/1.1/DTD/svg11.dtd"><svg t="1494059250026" class="icon" style="" viewBox="0 0 1024 1024" version="1.1" xmlns="http://www.w3.org/2000/svg" p-id="2619" xmlns:xlink="http://www.w3.org/1999/xlink" width="32" height="32"><defs><style type="text/css"></style></defs><path d="M227.922 579.986c-5.91 0-11.137-2.271-15.68-6.814l-34.084-34.086c-4.545-4.542-6.815-9.771-6.815-15.678 0-5.909 2.271-11.135 6.815-15.68L495.82 190.066c4.545-4.545 9.771-6.816 15.68-6.816s11.134 2.271 15.679 6.816l317.662 317.662c4.545 4.544 6.816 9.77 6.816 15.68 0 5.906-2.271 11.135-6.816 15.678l-34.082 34.086c-4.545 4.543-9.771 6.814-15.68 6.814s-11.135-2.271-15.679-6.814L511.501 305.27 243.603 573.172c-4.545 4.544-9.771 6.814-15.679 6.814h-0.002z m0 261.765c-5.91 0-11.137-2.272-15.68-6.816l-34.084-34.083c-4.545-4.545-6.815-9.771-6.815-15.68 0-5.907 2.271-11.134 6.815-15.678L495.82 451.83c4.545-4.545 9.771-6.816 15.68-6.816s11.134 2.271 15.679 6.816l317.662 317.664c4.545 4.543 6.816 9.77 6.816 15.678s-2.271 11.135-6.816 15.68l-34.082 34.082c-4.545 4.545-9.771 6.816-15.68 6.816s-11.135-2.271-15.679-6.816L511.501 567.036 243.603 834.935c-4.545 4.544-9.771 6.816-15.679 6.816h-0.002z" p-id="2620" fill="#17abe3"></path></svg>